<svg t="1704883963956" class="icon" viewBox="0 0 1024 1024" version="1.1" xmlns="http://www.w3.org/2000/svg" p-id="1369" width="16" height="16"><path d="M403.210737 413.115055c19.54981 48.672777 46.107126 89.642949 79.721678 123.258632 33.972839 33.971709 75.458402 60.735859 124.812715 80.342181l28.510376-28.510376a85.333333 85.333333 0 0 1 87.32369-20.614499l95.150623 31.716875c34.845386 11.615506 58.348786 44.224141 58.348786 80.953642l0.00226 105.301333c-0.00226 58.910517-47.760671 106.665536-106.670057 106.663276-1.193536 0-2.385943-0.020344-3.580609-0.059903-170.719788-5.742764-319.312812-71.407611-443.797757-195.893686C198.545236 571.788715 132.882649 423.194561 127.143276 252.473642l0.027126 0.734658-0.00113-0.030516-0.029387-0.704142c-1.977925-58.87774 44.147285-108.209448 103.025024-110.187373a106.699444 106.699444 0 0 1 3.58061-0.061033l105.297942 0.002261c36.729501 0 69.339267 23.5034 80.953643 58.348786l31.716874 95.149492a85.333333 85.333333 0 0 1-20.614499 87.324821l-28.510375 28.510375 0.621633 1.554084z m388.534535 267.147585l-95.150623-31.716874-28.512636 28.512636c-24.084344 24.082084-60.18204 31.537166-91.839011 18.963214-59.933386-23.808565-111.270146-56.928071-153.64973-99.308786-42.380715-42.380715-75.500221-93.717475-99.311047-153.653121-12.571691-31.653581-5.11774-67.752406 18.965475-91.837881l28.512636-28.510375-31.716875-95.150623-105.297942-0.00226c-0.237351 0-0.476962 0.004521-0.715444 0.011302-11.77487 0.395585-20.999912 10.262605-20.604327 22.038605l-0.005651-0.192141 0.007912 0.191011c4.954985 147.398358 60.491726 274.437651 167.680565 383.041554l3.263011 3.284485C492.695453 745.257254 620.810737 801.873377 769.697625 806.880353c0.237351 0.007912 0.476962 0.012433 0.715443 0.012433 11.781651 0 21.333333-9.550552 21.334464-21.331073l-0.00226-105.299073z" p-id="1370"></path></svg>